<svg version="1.2" xmlns="http://www.w3.org/2000/svg" viewBox="0 0 1903 496" width="1903" height="496"><style>tspan{white-space:pre}.a{fill:#303030}.b{font-size: 277px;fill: #303030;font-weight: 500;font-family: "NodestoCapsCondensedRegular", "Nodesto Caps Condensed"}</style><path fill-rule="evenodd" class="a" d="m381.2 73.5l75.6 290.3-242.9-19.5-75.5-290.3zm-253.7 1c-20 10.2-34 29.5-42.3 49.4q-0.9 2.2-1.7 4.4l-2.8-10c-4.9-18.6 16.2-53.2 41.8-63.2 0 0 5 19.4 5 19.4zm62.9 241.7c-19.5 9-34 24.5-42.8 40.6q-0.4 0.7-0.8 1.4l-54.5-197.8c0.7-9.1 3-20 7.4-30.4 6.8-16.2 17.9-31.4 31.9-39.8 0 0 58.8 226 58.8 226zm-9.9-177.8l201.3 13.5 1.1-15.6-201.3-13.6c0 0-1.1 15.7-1.1 15.7zm32.9 18.8c-11.9 9.7-20.8 22.5-19.7 37.4 1 14.9 12.1 28.9 33.6 40.9l7.7-13.7c-19.1-10.6-25.2-20.5-25.7-28.3-0.4-5.8 2.3-12 7.6-18l10.2 16.1 3.5 5.5 6-2.4 32.4-12.6 6.9 12.3c-6.1 4.3-11.3 8.3-15 12.1-4.9 5.1-8.2 9.8-9 15.5-0.8 5.7 2.8 12.1 7.6 14.6 4.7 2.5 9.9 2.8 15.6 2.3 21.1-2 52.1-17.8 73.7-51.7l21.9 18.5-25.6 11.1-8.1 3.4 4.4 7.7c8.7 15 23.2 20.3 35.8 19.4 12.7-0.9 24-6.6 31.9-11.8l-8.6-13.1c-6.4 4.2-16.1 8.7-24.4 9.3-5.9 0.4-10.9-0.4-15.5-4.6l27.9-12 11.7-5.1-9.7-8.1-38.6-32.6-7.4-6.2-4.6 8.4c-19 35-51 50.3-66.3 51.7-2.7 0.3-4.4 0-5.6-0.2 0.6-1.1 1.6-2.9 4.2-5.5 3.6-3.8 9.6-8.7 18.2-14.1l6.3-4-3.7-6.5-13.6-24.4-3.4-6-6.3 2.5-32.8 12.8-11.9-18.7-4.8-7.5c0 0-6.8 5.6-6.8 5.6zm1.8 93.6c0 0-1 15.7-1 15.7l201.3 13.6 1-15.7zm-15.4 101.1c-25.1 17.3-37.8 44.9-34.6 68l-1.4-0.1-9.8-35.4c1.2-6.3 3.6-13.2 7.3-20.1 7.1-12.8 18.4-25.1 33.2-32.7 0 0 5.3 20.3 5.3 20.3zm247.1 26.8c-9.2 3.8-15.9 8.9-20.5 14.7l11.5 11-39.2 6.1 18.9 7.6c-0.1 8.8 2.7 17.2 7.2 23.7l-243.3-20.5c-3.9-17.2 7.8-46.6 35-61.2 0 0 230.4 18.6 230.4 18.6z"/><text style="transform:matrix(2.458,0,0,2.458,474.626,417.811)" ><tspan x="0" y="0" class="b">t</tspan><tspan  y="0" class="b">a</tspan><tspan  y="0" class="b">v</tspan><tspan  y="0" class="b">e</tspan><tspan  y="0" class="b">r</tspan><tspan  y="0" class="b">n
</tspan></text></svg>